<?xml version="1.0" standalone="no"?>
<!DOCTYPE svg PUBLIC "-//W3C//DTD SVG 20010904//EN"
 "http://www.w3.org/TR/2001/REC-SVG-20010904/DTD/svg10.dtd">
<svg version="1.0" xmlns="http://www.w3.org/2000/svg"
 width="1200.000000pt" height="600.000000pt" viewBox="0 0 1200.000000 600.000000"
 preserveAspectRatio="xMidYMid meet">

<g transform="translate(0.000000,600.000000) scale(0.100000,-0.100000)"
fill="#000000" stroke="none">
<path d="M7810 3665 l0 -605 60 0 60 0 0 153 0 153 75 74 c62 61 77 72 85 60
6 -8 69 -111 141 -227 l131 -213 75 0 75 0 -23 38 c-13 20 -85 132 -161 249
-75 117 -142 222 -148 234 -11 20 0 34 136 170 l149 149 -74 0 -74 0 -193
-186 -194 -186 0 371 0 371 -60 0 -60 0 0 -605z"/>
<path d="M5902 3683 l3 -478 28 -48 c39 -65 103 -97 200 -97 l67 0 0 50 0 50
-37 1 c-64 1 -106 20 -125 59 -16 31 -18 67 -18 293 l0 257 63 0 63 0 54 55
54 55 -117 0 -117 0 0 140 0 140 -60 0 -61 0 3 -477z"/>
<path d="M6481 3899 c-50 -10 -116 -46 -150 -83 l-25 -26 39 -40 38 -39 43 39
c49 45 88 56 192 53 137 -3 192 -57 192 -190 l0 -71 -172 -4 c-154 -3 -179 -6
-223 -26 -98 -45 -135 -104 -135 -217 0 -159 90 -238 275 -239 117 -1 153 7
214 49 l51 35 0 -40 0 -40 61 0 60 0 -3 323 c-3 284 -5 327 -21 362 -22 49
-71 101 -117 125 -70 36 -216 49 -319 29z m327 -548 c-3 -95 -4 -101 -33 -132
-45 -47 -82 -59 -187 -59 -78 0 -99 4 -133 23 -103 58 -75 224 42 255 21 5
100 10 176 11 l139 1 -4 -99z"/>
<path d="M7330 3897 c-77 -18 -129 -48 -179 -102 -71 -77 -101 -171 -101 -315
0 -201 70 -334 209 -399 49 -22 69 -26 156 -26 89 0 106 3 155 27 30 15 70 42
88 61 l33 34 -42 37 -43 36 -30 -29 c-50 -46 -88 -61 -162 -61 -116 0 -198 59
-229 164 -20 68 -20 237 1 307 49 163 253 224 382 114 l41 -36 41 37 41 37
-28 29 c-71 74 -218 111 -333 85z"/>
<path d="M5335 3887 c-126 -42 -185 -116 -185 -231 0 -66 12 -102 48 -139 53
-57 125 -79 292 -92 47 -4 99 -13 117 -20 41 -17 66 -56 66 -103 0 -57 -26
-97 -80 -123 -94 -47 -311 -22 -368 41 -25 28 -36 25 -79 -19 l-37 -38 53 -35
c82 -55 139 -71 264 -76 130 -5 194 9 270 60 67 45 96 105 96 194 -1 96 -30
150 -103 187 -44 22 -79 30 -189 41 -154 17 -179 24 -209 62 -48 61 -16 159
62 189 69 26 194 18 271 -18 l60 -28 35 36 36 36 -23 19 c-13 10 -49 29 -80
41 -71 27 -254 36 -317 16z"/>
<path d="M8367 2786 c-62 -17 -116 -61 -147 -122 l-25 -48 0 -516 0 -515 105
0 105 0 3 343 2 342 80 0 80 0 0 85 0 85 -80 0 -80 0 0 64 c0 87 16 106 98
113 l62 6 0 88 0 89 -77 -1 c-43 0 -100 -6 -126 -13z"/>
<path d="M8680 2283 c0 -578 -1 -561 71 -630 48 -46 106 -63 210 -63 l89 0 0
90 0 90 -59 0 c-52 0 -62 3 -80 26 -21 26 -21 36 -21 515 l0 489 -105 0 -105
0 0 -517z"/>
<path d="M5360 2457 c-77 -18 -129 -48 -179 -102 -58 -63 -79 -115 -93 -234
-15 -132 0 -282 38 -358 57 -117 176 -185 324 -185 107 0 180 26 249 88 85 76
121 182 121 354 0 170 -34 272 -114 348 -86 81 -224 117 -346 89z m167 -207
c58 -35 68 -68 68 -225 0 -122 -3 -145 -21 -179 -50 -97 -194 -101 -249 -6
-16 29 -21 57 -24 159 -2 73 1 140 8 161 13 45 46 89 75 100 38 16 109 11 143
-10z"/>
<path d="M6920 2459 c-188 -37 -300 -203 -300 -443 1 -218 91 -369 252 -417
56 -17 88 -21 176 -18 97 4 114 7 172 36 36 18 80 47 97 65 l33 34 -65 64 -65
64 -22 -21 c-47 -43 -90 -58 -168 -58 -61 0 -82 4 -112 23 -45 28 -75 74 -84
130 l-7 42 277 0 276 0 0 33 c0 73 -20 196 -40 249 -41 110 -145 195 -264 217
-68 12 -92 12 -156 0z m132 -179 c44 -13 93 -66 107 -117 19 -66 27 -63 -159
-63 l-171 0 7 38 c21 115 107 172 216 142z"/>
<path d="M9380 2457 c-30 -7 -73 -23 -95 -34 -53 -27 -121 -102 -147 -159 -50
-115 -47 -390 7 -499 58 -119 176 -187 325 -187 149 0 267 68 325 187 55 112
58 380 5 503 -61 143 -251 228 -420 189z m167 -207 c58 -35 68 -68 68 -225 0
-122 -3 -145 -21 -179 -53 -103 -199 -101 -251 4 -20 39 -23 59 -23 170 0 139
14 188 65 228 37 29 117 30 162 2z"/>
<path d="M5820 2455 c0 -5 291 -797 315 -857 6 -15 20 -18 89 -18 l82 0 153
418 c83 229 154 427 158 440 5 22 4 22 -106 22 l-110 0 -89 -272 -89 -273 -90
270 -90 270 -111 3 c-62 1 -112 0 -112 -3z"/>
<path d="M7490 2020 l0 -441 108 3 107 3 5 302 5 301 25 27 c56 60 136 71 197
27 l30 -21 78 79 c90 90 90 95 0 136 -95 45 -223 30 -316 -37 l-29 -20 0 40 0
41 -105 0 -105 0 0 -440z"/>
<path d="M9843 2447 c3 -8 49 -155 102 -328 53 -173 112 -365 131 -427 l35
-113 87 3 87 3 90 268 c49 147 92 267 95 267 3 0 46 -120 95 -267 l90 -268 87
-3 87 -3 35 113 c98 319 226 746 226 757 0 8 -29 11 -111 9 l-112 -3 -67 -255
c-36 -140 -68 -261 -71 -268 -2 -7 -45 109 -94 258 l-90 270 -77 0 -77 0 -90
-272 c-88 -270 -89 -273 -99 -233 -15 56 -111 422 -123 468 l-10 37 -115 0
c-92 0 -115 -3 -111 -13z"/>
</g>
</svg>
